<svg width="145" height="42" viewBox="0 0 145 42" fill="none" xmlns="http://www.w3.org/2000/svg">
<g filter="url(#filter0_d_8580_221)">
<g filter="url(#filter1_b_8580_221)">
<path fill-rule="evenodd" clip-rule="evenodd" d="M0.5 21C0.5 9.95431 9.45431 1 20.5 1C31.5457 1 40.5 9.95431 40.5 21C40.5 32.0457 31.5457 41 20.5 41C9.45431 41 0.5 32.0457 0.5 21Z" fill="#EAFAF9"/>
</g>
<path fill-rule="evenodd" clip-rule="evenodd" d="M20.5017 10.334C17.6047 10.334 17.2412 10.3467 16.1034 10.3984C14.9678 10.4504 14.1927 10.6302 13.5145 10.894C12.8129 11.1664 12.2178 11.5309 11.6249 12.124C11.0316 12.7169 10.6671 13.312 10.3938 14.0134C10.1293 14.6918 9.94932 15.4671 9.89821 16.6023C9.84732 17.7401 9.83398 18.1038 9.83398 21.0008C9.83398 23.8977 9.84687 24.2601 9.89843 25.3979C9.95065 26.5335 10.1304 27.3086 10.394 27.9868C10.6667 28.6884 11.0311 29.2835 11.6242 29.8764C12.2169 30.4697 12.812 30.8351 13.5131 31.1075C14.1918 31.3713 14.9671 31.5511 16.1025 31.6031C17.2403 31.6549 17.6036 31.6675 20.5003 31.6675C23.3975 31.6675 23.7599 31.6549 24.8977 31.6031C26.0333 31.5511 26.8093 31.3713 27.4879 31.1075C28.1893 30.8351 28.7835 30.4697 29.3762 29.8764C29.9695 29.2835 30.334 28.6884 30.6073 27.9871C30.8695 27.3086 31.0495 26.5333 31.1029 25.3981C31.154 24.2604 31.1673 23.8977 31.1673 21.0008C31.1673 18.1038 31.154 17.7403 31.1029 16.6025C31.0495 15.4669 30.8695 14.6918 30.6073 14.0136C30.334 13.312 29.9695 12.7169 29.3762 12.124C28.7828 11.5307 28.1895 11.1662 27.4873 10.894C26.8073 10.6302 26.0317 10.4504 24.8961 10.3984C23.7584 10.3467 23.3961 10.334 20.4983 10.334H20.5017ZM19.5447 12.2562C19.8287 12.2558 20.1456 12.2562 20.5016 12.2562C23.3496 12.2562 23.6872 12.2664 24.8119 12.3175C25.8519 12.3651 26.4163 12.5389 26.7923 12.6849C27.2901 12.8782 27.645 13.1093 28.0181 13.4827C28.3915 13.856 28.6226 14.2116 28.8164 14.7093C28.9624 15.0849 29.1364 15.6493 29.1837 16.6894C29.2348 17.8138 29.2459 18.1516 29.2459 20.9983C29.2459 23.845 29.2348 24.1828 29.1837 25.3072C29.1361 26.3472 28.9624 26.9117 28.8164 27.2872C28.623 27.785 28.3915 28.1395 28.0181 28.5126C27.6448 28.8859 27.2903 29.117 26.7923 29.3104C26.4168 29.457 25.8519 29.6304 24.8119 29.6779C23.6874 29.729 23.3496 29.7402 20.5016 29.7402C17.6534 29.7402 17.3158 29.729 16.1913 29.6779C15.1513 29.6299 14.5869 29.4562 14.2107 29.3102C13.7129 29.1168 13.3573 28.8857 12.984 28.5124C12.6106 28.139 12.3795 27.7844 12.1857 27.2864C12.0397 26.9108 11.8657 26.3463 11.8184 25.3063C11.7673 24.1819 11.7571 23.8441 11.7571 20.9956C11.7571 18.1471 11.7673 17.8111 11.8184 16.6867C11.866 15.6467 12.0397 15.0822 12.1857 14.7062C12.3791 14.2084 12.6106 13.8529 12.984 13.4795C13.3573 13.1062 13.7129 12.8751 14.2107 12.6813C14.5867 12.5346 15.1513 12.3613 16.1913 12.3135C17.1753 12.2691 17.5567 12.2558 19.5447 12.2535V12.2562ZM26.1954 14.0273C25.4888 14.0273 24.9154 14.6 24.9154 15.3069C24.9154 16.0136 25.4888 16.5869 26.1954 16.5869C26.9021 16.5869 27.4755 16.0136 27.4755 15.3069C27.4755 14.6002 26.9021 14.0273 26.1954 14.0273ZM20.5017 15.5229C17.4765 15.5229 15.0238 17.9756 15.0238 21.0007C15.0238 24.0259 17.4765 26.4775 20.5017 26.4775C23.5268 26.4775 25.9786 24.0259 25.9786 21.0007C25.9786 17.9756 23.5268 15.5229 20.5017 15.5229ZM20.5016 17.4451C22.4652 17.4451 24.0572 19.0369 24.0572 21.0007C24.0572 22.9643 22.4652 24.5563 20.5016 24.5563C18.5378 24.5563 16.946 22.9643 16.946 21.0007C16.946 19.0369 18.5378 17.4451 20.5016 17.4451Z" fill="#25A59E"/>
</g>
<defs>
<filter id="filter0_d_8580_221" x="-15.0923" y="-69.633" width="282.083" height="282.083" filterUnits="userSpaceOnUse" color-interpolation-filters="sRGB">
<feFlood flood-opacity="0" result="BackgroundImageFix"/>
<feColorMatrix in="SourceAlpha" type="matrix" values="0 0 0 0 0 0 0 0 0 0 0 0 0 0 0 0 0 0 127 0" result="hardAlpha"/>
<feOffset dx="105.449" dy="50.4088"/>
<feGaussianBlur stdDeviation="60.5209"/>
<feComposite in2="hardAlpha" operator="out"/>
<feColorMatrix type="matrix" values="0 0 0 0 0.172549 0 0 0 0 0.113725 0 0 0 0 0.235294 0 0 0 0.25 0"/>
<feBlend mode="normal" in2="BackgroundImageFix" result="effect1_dropShadow_8580_221"/>
<feBlend mode="normal" in="SourceGraphic" in2="effect1_dropShadow_8580_221" result="shape"/>
</filter>
<filter id="filter1_b_8580_221" x="-8.5" y="-8" width="58" height="58" filterUnits="userSpaceOnUse" color-interpolation-filters="sRGB">
<feFlood flood-opacity="0" result="BackgroundImageFix"/>
<feGaussianBlur in="BackgroundImageFix" stdDeviation="4.5"/>
<feComposite in2="SourceAlpha" operator="in" result="effect1_backgroundBlur_8580_221"/>
<feBlend mode="normal" in="SourceGraphic" in2="effect1_backgroundBlur_8580_221" result="shape"/>
</filter>
</defs>
</svg>
