<svg width="23" height="16" viewBox="0 0 23 16" fill="none" xmlns="http://www.w3.org/2000/svg">
<path fill-rule="evenodd" clip-rule="evenodd" d="M19.8353 1.12379C20.7533 1.37568 21.4762 2.11786 21.7215 3.06037C22.1673 4.76855 22.1673 8.33268 22.1673 8.33268C22.1673 8.33268 22.1673 11.8967 21.7215 13.605C21.4762 14.5475 20.7533 15.2897 19.8353 15.5417C18.1718 15.9994 11.5007 15.9994 11.5007 15.9994C11.5007 15.9994 4.8295 15.9994 3.16586 15.5417C2.24792 15.2897 1.52501 14.5475 1.27968 13.605C0.833984 11.8967 0.833984 8.33268 0.833984 8.33268C0.833984 8.33268 0.833984 4.76855 1.27968 3.06037C1.52501 2.11786 2.24792 1.37568 3.16586 1.12379C4.8295 0.666016 11.5007 0.666016 11.5007 0.666016C11.5007 0.666016 18.1718 0.666016 19.8353 1.12379ZM9.50067 5.33261V11.9993L14.834 8.66607L9.50067 5.33261Z" fill="#25A59E"/>
</svg>
