<svg width="57" height="42" viewBox="0 0 57 42" fill="none" xmlns="http://www.w3.org/2000/svg">
<g filter="url(#filter0_d_8580_227)">
<g filter="url(#filter1_b_8580_227)">
<path fill-rule="evenodd" clip-rule="evenodd" d="M16.5 21C16.5 9.95431 25.4543 1 36.5 1C47.5457 1 56.5 9.95431 56.5 21C56.5 32.0457 47.5457 41 36.5 41C25.4543 41 16.5 32.0457 16.5 21Z" fill="#EAFAF9"/>
</g>
<path fill-rule="evenodd" clip-rule="evenodd" d="M44.8353 14.1238C45.7533 14.3757 46.4762 15.1179 46.7215 16.0604C47.1673 17.7685 47.1673 21.3327 47.1673 21.3327C47.1673 21.3327 47.1673 24.8967 46.7215 26.605C46.4762 27.5475 45.7533 28.2897 44.8353 28.5417C43.1718 28.9994 36.5007 28.9994 36.5007 28.9994C36.5007 28.9994 29.8295 28.9994 28.1659 28.5417C27.2479 28.2897 26.525 27.5475 26.2797 26.605C25.834 24.8967 25.834 21.3327 25.834 21.3327C25.834 21.3327 25.834 17.7685 26.2797 16.0604C26.525 15.1179 27.2479 14.3757 28.1659 14.1238C29.8295 13.666 36.5007 13.666 36.5007 13.666C36.5007 13.666 43.1718 13.666 44.8353 14.1238ZM34.5007 18.3326V24.9993L39.834 21.6661L34.5007 18.3326Z" fill="#25A59E"/>
</g>
<defs>
<filter id="filter0_d_8580_227" x="0.907738" y="-69.633" width="282.083" height="282.083" filterUnits="userSpaceOnUse" color-interpolation-filters="sRGB">
<feFlood flood-opacity="0" result="BackgroundImageFix"/>
<feColorMatrix in="SourceAlpha" type="matrix" values="0 0 0 0 0 0 0 0 0 0 0 0 0 0 0 0 0 0 127 0" result="hardAlpha"/>
<feOffset dx="105.449" dy="50.4088"/>
<feGaussianBlur stdDeviation="60.5209"/>
<feComposite in2="hardAlpha" operator="out"/>
<feColorMatrix type="matrix" values="0 0 0 0 0.172549 0 0 0 0 0.113725 0 0 0 0 0.235294 0 0 0 0.25 0"/>
<feBlend mode="normal" in2="BackgroundImageFix" result="effect1_dropShadow_8580_227"/>
<feBlend mode="normal" in="SourceGraphic" in2="effect1_dropShadow_8580_227" result="shape"/>
</filter>
<filter id="filter1_b_8580_227" x="7.5" y="-8" width="58" height="58" filterUnits="userSpaceOnUse" color-interpolation-filters="sRGB">
<feFlood flood-opacity="0" result="BackgroundImageFix"/>
<feGaussianBlur in="BackgroundImageFix" stdDeviation="4.5"/>
<feComposite in2="SourceAlpha" operator="in" result="effect1_backgroundBlur_8580_227"/>
<feBlend mode="normal" in="SourceGraphic" in2="effect1_backgroundBlur_8580_227" result="shape"/>
</filter>
</defs>
</svg>
